<?xml version="1.0" encoding="utf-8"?>
<!-- Generator: Adobe Illustrator 22.1.0, SVG Export Plug-In . SVG Version: 6.00 Build 0)  -->
<svg version="1.1" id="Layer_1" xmlns="http://www.w3.org/2000/svg" xmlns:xlink="http://www.w3.org/1999/xlink" x="0px" y="0px"
	 viewBox="0 0 800 148.6" enable-background="new 0 0 800 148.6" xml:space="preserve">
<g>
	<path fill="#00AAFF" d="M797.3,32c-1.8-5.4-4.6-10.3-8.6-14.6c-3.9-4.2-9-7.6-15.2-10.2c-6.2-2.6-13.7-3.9-22.6-3.9h-64.1v142H718
		V94.5h32.8c8.9,0,16.5-1.3,22.8-3.9c6.2-2.6,11.2-6,15.1-10.2c4-4.3,6.8-9.2,8.6-14.7c1.8-5.5,2.7-11.1,2.7-16.8
		C800,43.1,799.1,37.5,797.3,32z M767.5,59.9c-1.5,2.8-3.5,4.9-6,6.4c-2.5,1.6-5.4,2.6-8.7,3.1c-3.4,0.5-6.9,0.8-10.4,0.8H718V27.7
		h24.3c3.6,0,7,0.3,10.4,0.8c3.3,0.5,6.2,1.6,8.7,3.1c2.6,1.5,4.6,3.6,6,6.4c1.5,2.8,2.3,6.5,2.3,11C769.8,53.5,769,57.1,767.5,59.9
		z"/>
	<path fill="#00AAFF" d="M646.7,20.9C641,15,634.1,10.7,626.2,7.8c-7.9-2.9-16.4-4.4-25.5-4.4h-61.3v142h61.3
		c10.9,0,20.3-1.8,28.3-5.5c8-3.7,14.7-8.7,20.1-15.1c5.4-6.4,9.4-13.9,12-22.6c2.7-8.7,4-18.3,4-28.6c0-11.8-1.6-22.1-4.9-30.9
		C657.1,34,652.5,26.7,646.7,20.9z M630.9,96.4c-1.9,5.5-4.6,9.9-8,13.4c-3.3,3.3-7,5.7-11.2,7.1c-4.3,1.5-8.7,2.3-13.2,2.3h-27.8
		V29.6h22.3c7.7,0,14.2,1.1,19.4,3.3c5.3,2.2,9.5,5.3,12.7,9.4c3.2,4.1,5.5,9.1,6.9,14.9c1.3,5.8,2,12.2,2,19.4
		C633.9,84.4,632.9,91,630.9,96.4z"/>
	<path fill="#00AAFF" d="M478.2,113.8c-5.4,5.8-12.9,8.7-22.5,8.7c-7,0-12.9-1.4-17.9-4.1c-4.9-2.7-8.9-6.3-11.9-10.8
		c-3.1-4.5-5.2-9.6-6.6-15.3c-1.5-5.6-2.2-11.4-2.2-17.4c0-6.2,0.7-12.2,2.2-18.1c1.3-5.9,3.5-11.1,6.6-15.6c3.1-4.6,7-8.3,11.9-11
		c4.9-2.7,10.9-4.1,17.9-4.1c3.9,0,7.6,0.6,11.1,1.8c3.5,1.3,6.6,3.1,9.4,5.3c2.8,2.3,5.1,4.9,7,7.9c1.8,3,3,6.2,3.6,9.8H517
		c-0.9-8.2-3.1-15.5-6.8-21.8c-3.6-6.4-8.1-11.7-13.6-16.1C491.2,8.9,485,5.6,478,3.4c-7-2.3-14.4-3.4-22.3-3.4
		c-10.9,0-20.6,1.9-29.3,5.7c-8.7,3.9-16,9.2-21.9,15.9c-6,6.8-10.6,14.7-13.8,23.8c-3.2,9.1-4.8,18.9-4.8,29.5
		c0,10.4,1.6,20,4.8,29c3.2,8.9,7.8,16.7,13.8,23.4c5.9,6.6,13.3,11.8,21.9,15.6c8.7,3.8,18.4,5.6,29.3,5.6c8.7,0,16.8-1.3,24.1-4
		c7.3-2.7,13.7-6.5,19.1-11.6c5.4-5,9.8-11.1,13.1-18.2c3.3-7.1,5.4-15.1,6.1-24.1H488C486.9,100.3,483.6,108,478.2,113.8z"/>
	<polygon fill="#00AAFF" points="289.3,101 289,101 255.7,3.4 211.7,3.4 211.7,145.4 240.9,145.4 240.9,45.7 241.4,45.7 
		276.2,145.4 300.2,145.4 335.1,44.8 335.4,44.8 335.4,145.4 364.7,145.4 364.7,3.4 320.7,3.4 	"/>
	<polygon fill="#00AAFF" points="75.4,42.7 37.4,42.7 37.4,75.9 0,75.9 0,148.6 186.4,148.6 186.4,4.1 75.4,4.1 	"/>
</g>
</svg>
